<mxfile host="app.diagrams.net" modified="2022-12-05T16:16:30.108Z" agent="5.0 (Windows NT 10.0; Win64; x64) AppleWebKit/537.36 (KHTML, like Gecko) Chrome/108.0.0.0 Safari/537.36" etag="uhu_gIJuOThGcVZk0TnM" version="20.6.0" type="github">
  <diagram id="R2lEEEUBdFMjLlhIrx00" name="Page-1">
    <mxGraphModel dx="1422" dy="1856" grid="1" gridSize="10" guides="1" tooltips="1" connect="1" arrows="1" fold="1" page="1" pageScale="1" pageWidth="850" pageHeight="1100" math="0" shadow="0" extFonts="Permanent Marker^https://fonts.googleapis.com/css?family=Permanent+Marker">
      <root>
        <mxCell id="0" />
        <mxCell id="1" parent="0" />
        <mxCell id="I-8Jb-c6i_d0x6bj5Tj_-14" value="player" style="shape=table;startSize=30;container=1;collapsible=1;childLayout=tableLayout;fixedRows=1;rowLines=0;fontStyle=1;align=center;resizeLast=1;" vertex="1" parent="1">
          <mxGeometry x="20" y="150" width="250" height="300" as="geometry" />
        </mxCell>
        <mxCell id="I-8Jb-c6i_d0x6bj5Tj_-15" value="" style="shape=tableRow;horizontal=0;startSize=0;swimlaneHead=0;swimlaneBody=0;fillColor=none;collapsible=0;dropTarget=0;points=[[0,0.5],[1,0.5]];portConstraint=eastwest;top=0;left=0;right=0;bottom=0;" vertex="1" parent="I-8Jb-c6i_d0x6bj5Tj_-14">
          <mxGeometry y="30" width="250" height="30" as="geometry" />
        </mxCell>
        <mxCell id="I-8Jb-c6i_d0x6bj5Tj_-16" value="PK" style="shape=partialRectangle;connectable=0;fillColor=none;top=0;left=0;bottom=0;right=0;fontStyle=1;overflow=hidden;" vertex="1" parent="I-8Jb-c6i_d0x6bj5Tj_-15">
          <mxGeometry width="60" height="30" as="geometry">
            <mxRectangle width="60" height="30" as="alternateBounds" />
          </mxGeometry>
        </mxCell>
        <mxCell id="I-8Jb-c6i_d0x6bj5Tj_-17" value="id INT" style="shape=partialRectangle;connectable=0;fillColor=none;top=0;left=0;bottom=0;right=0;align=left;spacingLeft=6;fontStyle=0;overflow=hidden;" vertex="1" parent="I-8Jb-c6i_d0x6bj5Tj_-15">
          <mxGeometry x="60" width="190" height="30" as="geometry">
            <mxRectangle width="190" height="30" as="alternateBounds" />
          </mxGeometry>
        </mxCell>
        <mxCell id="I-8Jb-c6i_d0x6bj5Tj_-18" value="" style="shape=tableRow;horizontal=0;startSize=0;swimlaneHead=0;swimlaneBody=0;fillColor=none;collapsible=0;dropTarget=0;points=[[0,0.5],[1,0.5]];portConstraint=eastwest;top=0;left=0;right=0;bottom=1;" vertex="1" parent="I-8Jb-c6i_d0x6bj5Tj_-14">
          <mxGeometry y="60" width="250" height="30" as="geometry" />
        </mxCell>
        <mxCell id="I-8Jb-c6i_d0x6bj5Tj_-19" value="FK" style="shape=partialRectangle;connectable=0;fillColor=none;top=0;left=0;bottom=0;right=0;fontStyle=1;overflow=hidden;" vertex="1" parent="I-8Jb-c6i_d0x6bj5Tj_-18">
          <mxGeometry width="60" height="30" as="geometry">
            <mxRectangle width="60" height="30" as="alternateBounds" />
          </mxGeometry>
        </mxCell>
        <mxCell id="I-8Jb-c6i_d0x6bj5Tj_-20" value="fk_team_id INT" style="shape=partialRectangle;connectable=0;fillColor=none;top=0;left=0;bottom=0;right=0;align=left;spacingLeft=6;fontStyle=0;overflow=hidden;" vertex="1" parent="I-8Jb-c6i_d0x6bj5Tj_-18">
          <mxGeometry x="60" width="190" height="30" as="geometry">
            <mxRectangle width="190" height="30" as="alternateBounds" />
          </mxGeometry>
        </mxCell>
        <mxCell id="I-8Jb-c6i_d0x6bj5Tj_-21" value="" style="shape=tableRow;horizontal=0;startSize=0;swimlaneHead=0;swimlaneBody=0;fillColor=none;collapsible=0;dropTarget=0;points=[[0,0.5],[1,0.5]];portConstraint=eastwest;top=0;left=0;right=0;bottom=0;" vertex="1" parent="I-8Jb-c6i_d0x6bj5Tj_-14">
          <mxGeometry y="90" width="250" height="30" as="geometry" />
        </mxCell>
        <mxCell id="I-8Jb-c6i_d0x6bj5Tj_-22" value="" style="shape=partialRectangle;connectable=0;fillColor=none;top=0;left=0;bottom=0;right=0;editable=1;overflow=hidden;" vertex="1" parent="I-8Jb-c6i_d0x6bj5Tj_-21">
          <mxGeometry width="60" height="30" as="geometry">
            <mxRectangle width="60" height="30" as="alternateBounds" />
          </mxGeometry>
        </mxCell>
        <mxCell id="I-8Jb-c6i_d0x6bj5Tj_-23" value="first_name VARCHAR(45)" style="shape=partialRectangle;connectable=0;fillColor=none;top=0;left=0;bottom=0;right=0;align=left;spacingLeft=6;overflow=hidden;" vertex="1" parent="I-8Jb-c6i_d0x6bj5Tj_-21">
          <mxGeometry x="60" width="190" height="30" as="geometry">
            <mxRectangle width="190" height="30" as="alternateBounds" />
          </mxGeometry>
        </mxCell>
        <mxCell id="I-8Jb-c6i_d0x6bj5Tj_-73" value="" style="shape=tableRow;horizontal=0;startSize=0;swimlaneHead=0;swimlaneBody=0;fillColor=none;collapsible=0;dropTarget=0;points=[[0,0.5],[1,0.5]];portConstraint=eastwest;top=0;left=0;right=0;bottom=0;rounded=0;shadow=0;glass=0;sketch=0;strokeWidth=2;" vertex="1" parent="I-8Jb-c6i_d0x6bj5Tj_-14">
          <mxGeometry y="120" width="250" height="30" as="geometry" />
        </mxCell>
        <mxCell id="I-8Jb-c6i_d0x6bj5Tj_-74" value="" style="shape=partialRectangle;connectable=0;fillColor=none;top=0;left=0;bottom=0;right=0;editable=1;overflow=hidden;rounded=0;shadow=0;glass=0;sketch=0;strokeWidth=2;" vertex="1" parent="I-8Jb-c6i_d0x6bj5Tj_-73">
          <mxGeometry width="60" height="30" as="geometry">
            <mxRectangle width="60" height="30" as="alternateBounds" />
          </mxGeometry>
        </mxCell>
        <mxCell id="I-8Jb-c6i_d0x6bj5Tj_-75" value="last_name VARCHAR(45)" style="shape=partialRectangle;connectable=0;fillColor=none;top=0;left=0;bottom=0;right=0;align=left;spacingLeft=6;overflow=hidden;rounded=0;shadow=0;glass=0;sketch=0;strokeWidth=2;" vertex="1" parent="I-8Jb-c6i_d0x6bj5Tj_-73">
          <mxGeometry x="60" width="190" height="30" as="geometry">
            <mxRectangle width="190" height="30" as="alternateBounds" />
          </mxGeometry>
        </mxCell>
        <mxCell id="I-8Jb-c6i_d0x6bj5Tj_-116" value="" style="shape=tableRow;horizontal=0;startSize=0;swimlaneHead=0;swimlaneBody=0;fillColor=none;collapsible=0;dropTarget=0;points=[[0,0.5],[1,0.5]];portConstraint=eastwest;top=0;left=0;right=0;bottom=0;rounded=0;shadow=0;glass=0;sketch=0;strokeColor=default;strokeWidth=1;" vertex="1" parent="I-8Jb-c6i_d0x6bj5Tj_-14">
          <mxGeometry y="150" width="250" height="30" as="geometry" />
        </mxCell>
        <mxCell id="I-8Jb-c6i_d0x6bj5Tj_-117" value="" style="shape=partialRectangle;connectable=0;fillColor=none;top=0;left=0;bottom=0;right=0;editable=1;overflow=hidden;rounded=0;shadow=0;glass=0;sketch=0;strokeColor=default;strokeWidth=1;" vertex="1" parent="I-8Jb-c6i_d0x6bj5Tj_-116">
          <mxGeometry width="60" height="30" as="geometry">
            <mxRectangle width="60" height="30" as="alternateBounds" />
          </mxGeometry>
        </mxCell>
        <mxCell id="I-8Jb-c6i_d0x6bj5Tj_-118" value="goals_scored INT" style="shape=partialRectangle;connectable=0;fillColor=none;top=0;left=0;bottom=0;right=0;align=left;spacingLeft=6;overflow=hidden;rounded=0;shadow=0;glass=0;sketch=0;strokeColor=default;strokeWidth=1;" vertex="1" parent="I-8Jb-c6i_d0x6bj5Tj_-116">
          <mxGeometry x="60" width="190" height="30" as="geometry">
            <mxRectangle width="190" height="30" as="alternateBounds" />
          </mxGeometry>
        </mxCell>
        <mxCell id="I-8Jb-c6i_d0x6bj5Tj_-123" value="" style="shape=tableRow;horizontal=0;startSize=0;swimlaneHead=0;swimlaneBody=0;fillColor=none;collapsible=0;dropTarget=0;points=[[0,0.5],[1,0.5]];portConstraint=eastwest;top=0;left=0;right=0;bottom=0;rounded=0;shadow=0;glass=0;sketch=0;strokeColor=default;strokeWidth=1;" vertex="1" parent="I-8Jb-c6i_d0x6bj5Tj_-14">
          <mxGeometry y="180" width="250" height="30" as="geometry" />
        </mxCell>
        <mxCell id="I-8Jb-c6i_d0x6bj5Tj_-124" value="" style="shape=partialRectangle;connectable=0;fillColor=none;top=0;left=0;bottom=0;right=0;editable=1;overflow=hidden;rounded=0;shadow=0;glass=0;sketch=0;strokeColor=default;strokeWidth=1;" vertex="1" parent="I-8Jb-c6i_d0x6bj5Tj_-123">
          <mxGeometry width="60" height="30" as="geometry">
            <mxRectangle width="60" height="30" as="alternateBounds" />
          </mxGeometry>
        </mxCell>
        <mxCell id="I-8Jb-c6i_d0x6bj5Tj_-125" value="assists INT" style="shape=partialRectangle;connectable=0;fillColor=none;top=0;left=0;bottom=0;right=0;align=left;spacingLeft=6;overflow=hidden;rounded=0;shadow=0;glass=0;sketch=0;strokeColor=default;strokeWidth=1;" vertex="1" parent="I-8Jb-c6i_d0x6bj5Tj_-123">
          <mxGeometry x="60" width="190" height="30" as="geometry">
            <mxRectangle width="190" height="30" as="alternateBounds" />
          </mxGeometry>
        </mxCell>
        <mxCell id="I-8Jb-c6i_d0x6bj5Tj_-126" value="" style="shape=tableRow;horizontal=0;startSize=0;swimlaneHead=0;swimlaneBody=0;fillColor=none;collapsible=0;dropTarget=0;points=[[0,0.5],[1,0.5]];portConstraint=eastwest;top=0;left=0;right=0;bottom=0;rounded=0;shadow=0;glass=0;sketch=0;strokeColor=default;strokeWidth=1;" vertex="1" parent="I-8Jb-c6i_d0x6bj5Tj_-14">
          <mxGeometry y="210" width="250" height="30" as="geometry" />
        </mxCell>
        <mxCell id="I-8Jb-c6i_d0x6bj5Tj_-127" value="" style="shape=partialRectangle;connectable=0;fillColor=none;top=0;left=0;bottom=0;right=0;editable=1;overflow=hidden;rounded=0;shadow=0;glass=0;sketch=0;strokeColor=default;strokeWidth=1;" vertex="1" parent="I-8Jb-c6i_d0x6bj5Tj_-126">
          <mxGeometry width="60" height="30" as="geometry">
            <mxRectangle width="60" height="30" as="alternateBounds" />
          </mxGeometry>
        </mxCell>
        <mxCell id="I-8Jb-c6i_d0x6bj5Tj_-128" value="minutes_played INT" style="shape=partialRectangle;connectable=0;fillColor=none;top=0;left=0;bottom=0;right=0;align=left;spacingLeft=6;overflow=hidden;rounded=0;shadow=0;glass=0;sketch=0;strokeColor=default;strokeWidth=1;" vertex="1" parent="I-8Jb-c6i_d0x6bj5Tj_-126">
          <mxGeometry x="60" width="190" height="30" as="geometry">
            <mxRectangle width="190" height="30" as="alternateBounds" />
          </mxGeometry>
        </mxCell>
        <mxCell id="I-8Jb-c6i_d0x6bj5Tj_-129" value="" style="shape=tableRow;horizontal=0;startSize=0;swimlaneHead=0;swimlaneBody=0;fillColor=none;collapsible=0;dropTarget=0;points=[[0,0.5],[1,0.5]];portConstraint=eastwest;top=0;left=0;right=0;bottom=0;rounded=0;shadow=0;glass=0;sketch=0;strokeColor=default;strokeWidth=1;" vertex="1" parent="I-8Jb-c6i_d0x6bj5Tj_-14">
          <mxGeometry y="240" width="250" height="30" as="geometry" />
        </mxCell>
        <mxCell id="I-8Jb-c6i_d0x6bj5Tj_-130" value="" style="shape=partialRectangle;connectable=0;fillColor=none;top=0;left=0;bottom=0;right=0;editable=1;overflow=hidden;rounded=0;shadow=0;glass=0;sketch=0;strokeColor=default;strokeWidth=1;" vertex="1" parent="I-8Jb-c6i_d0x6bj5Tj_-129">
          <mxGeometry width="60" height="30" as="geometry">
            <mxRectangle width="60" height="30" as="alternateBounds" />
          </mxGeometry>
        </mxCell>
        <mxCell id="I-8Jb-c6i_d0x6bj5Tj_-131" value="rating INT" style="shape=partialRectangle;connectable=0;fillColor=none;top=0;left=0;bottom=0;right=0;align=left;spacingLeft=6;overflow=hidden;rounded=0;shadow=0;glass=0;sketch=0;strokeColor=default;strokeWidth=1;" vertex="1" parent="I-8Jb-c6i_d0x6bj5Tj_-129">
          <mxGeometry x="60" width="190" height="30" as="geometry">
            <mxRectangle width="190" height="30" as="alternateBounds" />
          </mxGeometry>
        </mxCell>
        <mxCell id="I-8Jb-c6i_d0x6bj5Tj_-76" value="" style="shape=tableRow;horizontal=0;startSize=0;swimlaneHead=0;swimlaneBody=0;fillColor=none;collapsible=0;dropTarget=0;points=[[0,0.5],[1,0.5]];portConstraint=eastwest;top=0;left=0;right=0;bottom=0;rounded=0;shadow=0;glass=0;sketch=0;strokeWidth=2;" vertex="1" parent="I-8Jb-c6i_d0x6bj5Tj_-14">
          <mxGeometry y="270" width="250" height="30" as="geometry" />
        </mxCell>
        <mxCell id="I-8Jb-c6i_d0x6bj5Tj_-77" value="" style="shape=partialRectangle;connectable=0;fillColor=none;top=0;left=0;bottom=0;right=0;editable=1;overflow=hidden;rounded=0;shadow=0;glass=0;sketch=0;strokeWidth=2;" vertex="1" parent="I-8Jb-c6i_d0x6bj5Tj_-76">
          <mxGeometry width="60" height="30" as="geometry">
            <mxRectangle width="60" height="30" as="alternateBounds" />
          </mxGeometry>
        </mxCell>
        <mxCell id="I-8Jb-c6i_d0x6bj5Tj_-78" value="position VARCHAR(45)" style="shape=partialRectangle;connectable=0;fillColor=none;top=0;left=0;bottom=0;right=0;align=left;spacingLeft=6;overflow=hidden;rounded=0;shadow=0;glass=0;sketch=0;strokeWidth=2;" vertex="1" parent="I-8Jb-c6i_d0x6bj5Tj_-76">
          <mxGeometry x="60" width="190" height="30" as="geometry">
            <mxRectangle width="190" height="30" as="alternateBounds" />
          </mxGeometry>
        </mxCell>
        <mxCell id="I-8Jb-c6i_d0x6bj5Tj_-103" value="stadium" style="shape=table;startSize=30;container=1;collapsible=1;childLayout=tableLayout;fixedRows=1;rowLines=0;fontStyle=0;align=center;resizeLast=1;rounded=0;shadow=0;glass=0;sketch=0;strokeWidth=1;swimlaneLine=1;strokeColor=default;" vertex="1" parent="1">
          <mxGeometry x="640" y="230" width="180" height="120" as="geometry" />
        </mxCell>
        <mxCell id="I-8Jb-c6i_d0x6bj5Tj_-104" value="" style="shape=tableRow;horizontal=0;startSize=0;swimlaneHead=0;swimlaneBody=0;fillColor=none;collapsible=0;dropTarget=0;points=[[0,0.5],[1,0.5]];portConstraint=eastwest;top=0;left=0;right=0;bottom=1;rounded=0;shadow=0;glass=0;sketch=0;strokeWidth=2;" vertex="1" parent="I-8Jb-c6i_d0x6bj5Tj_-103">
          <mxGeometry y="30" width="180" height="30" as="geometry" />
        </mxCell>
        <mxCell id="I-8Jb-c6i_d0x6bj5Tj_-105" value="PK" style="shape=partialRectangle;connectable=0;fillColor=none;top=0;left=0;bottom=0;right=0;fontStyle=1;overflow=hidden;rounded=0;shadow=0;glass=0;sketch=0;strokeWidth=2;" vertex="1" parent="I-8Jb-c6i_d0x6bj5Tj_-104">
          <mxGeometry width="30" height="30" as="geometry">
            <mxRectangle width="30" height="30" as="alternateBounds" />
          </mxGeometry>
        </mxCell>
        <mxCell id="I-8Jb-c6i_d0x6bj5Tj_-106" value="id INT" style="shape=partialRectangle;connectable=0;fillColor=none;top=0;left=0;bottom=0;right=0;align=left;spacingLeft=6;fontStyle=0;overflow=hidden;rounded=0;shadow=0;glass=0;sketch=0;strokeWidth=2;" vertex="1" parent="I-8Jb-c6i_d0x6bj5Tj_-104">
          <mxGeometry x="30" width="150" height="30" as="geometry">
            <mxRectangle width="150" height="30" as="alternateBounds" />
          </mxGeometry>
        </mxCell>
        <mxCell id="I-8Jb-c6i_d0x6bj5Tj_-107" value="" style="shape=tableRow;horizontal=0;startSize=0;swimlaneHead=0;swimlaneBody=0;fillColor=none;collapsible=0;dropTarget=0;points=[[0,0.5],[1,0.5]];portConstraint=eastwest;top=0;left=0;right=0;bottom=0;rounded=0;shadow=0;glass=0;sketch=0;strokeWidth=2;" vertex="1" parent="I-8Jb-c6i_d0x6bj5Tj_-103">
          <mxGeometry y="60" width="180" height="30" as="geometry" />
        </mxCell>
        <mxCell id="I-8Jb-c6i_d0x6bj5Tj_-108" value="" style="shape=partialRectangle;connectable=0;fillColor=none;top=0;left=0;bottom=0;right=0;editable=1;overflow=hidden;rounded=0;shadow=0;glass=0;sketch=0;strokeWidth=2;" vertex="1" parent="I-8Jb-c6i_d0x6bj5Tj_-107">
          <mxGeometry width="30" height="30" as="geometry">
            <mxRectangle width="30" height="30" as="alternateBounds" />
          </mxGeometry>
        </mxCell>
        <mxCell id="I-8Jb-c6i_d0x6bj5Tj_-109" value="name VARCHAR(45)" style="shape=partialRectangle;connectable=0;fillColor=none;top=0;left=0;bottom=0;right=0;align=left;spacingLeft=6;overflow=hidden;rounded=0;shadow=0;glass=0;sketch=0;strokeWidth=2;" vertex="1" parent="I-8Jb-c6i_d0x6bj5Tj_-107">
          <mxGeometry x="30" width="150" height="30" as="geometry">
            <mxRectangle width="150" height="30" as="alternateBounds" />
          </mxGeometry>
        </mxCell>
        <mxCell id="I-8Jb-c6i_d0x6bj5Tj_-110" value="" style="shape=tableRow;horizontal=0;startSize=0;swimlaneHead=0;swimlaneBody=0;fillColor=none;collapsible=0;dropTarget=0;points=[[0,0.5],[1,0.5]];portConstraint=eastwest;top=0;left=0;right=0;bottom=0;rounded=0;shadow=0;glass=0;sketch=0;strokeWidth=2;" vertex="1" parent="I-8Jb-c6i_d0x6bj5Tj_-103">
          <mxGeometry y="90" width="180" height="30" as="geometry" />
        </mxCell>
        <mxCell id="I-8Jb-c6i_d0x6bj5Tj_-111" value="" style="shape=partialRectangle;connectable=0;fillColor=none;top=0;left=0;bottom=0;right=0;editable=1;overflow=hidden;rounded=0;shadow=0;glass=0;sketch=0;strokeWidth=2;" vertex="1" parent="I-8Jb-c6i_d0x6bj5Tj_-110">
          <mxGeometry width="30" height="30" as="geometry">
            <mxRectangle width="30" height="30" as="alternateBounds" />
          </mxGeometry>
        </mxCell>
        <mxCell id="I-8Jb-c6i_d0x6bj5Tj_-112" value="capacity INT" style="shape=partialRectangle;connectable=0;fillColor=none;top=0;left=0;bottom=0;right=0;align=left;spacingLeft=6;overflow=hidden;rounded=0;shadow=0;glass=0;sketch=0;strokeWidth=2;" vertex="1" parent="I-8Jb-c6i_d0x6bj5Tj_-110">
          <mxGeometry x="30" width="150" height="30" as="geometry">
            <mxRectangle width="150" height="30" as="alternateBounds" />
          </mxGeometry>
        </mxCell>
        <mxCell id="I-8Jb-c6i_d0x6bj5Tj_-132" value="match" style="shape=table;startSize=30;container=1;collapsible=1;childLayout=tableLayout;fixedRows=1;rowLines=0;fontStyle=1;align=center;resizeLast=1;" vertex="1" parent="1">
          <mxGeometry x="350" y="360" width="250" height="150" as="geometry" />
        </mxCell>
        <mxCell id="I-8Jb-c6i_d0x6bj5Tj_-133" value="" style="shape=tableRow;horizontal=0;startSize=0;swimlaneHead=0;swimlaneBody=0;fillColor=none;collapsible=0;dropTarget=0;points=[[0,0.5],[1,0.5]];portConstraint=eastwest;top=0;left=0;right=0;bottom=0;" vertex="1" parent="I-8Jb-c6i_d0x6bj5Tj_-132">
          <mxGeometry y="30" width="250" height="30" as="geometry" />
        </mxCell>
        <mxCell id="I-8Jb-c6i_d0x6bj5Tj_-134" value="PK" style="shape=partialRectangle;connectable=0;fillColor=none;top=0;left=0;bottom=0;right=0;fontStyle=1;overflow=hidden;" vertex="1" parent="I-8Jb-c6i_d0x6bj5Tj_-133">
          <mxGeometry width="60" height="30" as="geometry">
            <mxRectangle width="60" height="30" as="alternateBounds" />
          </mxGeometry>
        </mxCell>
        <mxCell id="I-8Jb-c6i_d0x6bj5Tj_-135" value="id INT" style="shape=partialRectangle;connectable=0;fillColor=none;top=0;left=0;bottom=0;right=0;align=left;spacingLeft=6;fontStyle=0;overflow=hidden;" vertex="1" parent="I-8Jb-c6i_d0x6bj5Tj_-133">
          <mxGeometry x="60" width="190" height="30" as="geometry">
            <mxRectangle width="190" height="30" as="alternateBounds" />
          </mxGeometry>
        </mxCell>
        <mxCell id="I-8Jb-c6i_d0x6bj5Tj_-136" value="" style="shape=tableRow;horizontal=0;startSize=0;swimlaneHead=0;swimlaneBody=0;fillColor=none;collapsible=0;dropTarget=0;points=[[0,0.5],[1,0.5]];portConstraint=eastwest;top=0;left=0;right=0;bottom=1;" vertex="1" parent="I-8Jb-c6i_d0x6bj5Tj_-132">
          <mxGeometry y="60" width="250" height="30" as="geometry" />
        </mxCell>
        <mxCell id="I-8Jb-c6i_d0x6bj5Tj_-137" value="FK" style="shape=partialRectangle;connectable=0;fillColor=none;top=0;left=0;bottom=0;right=0;fontStyle=1;overflow=hidden;" vertex="1" parent="I-8Jb-c6i_d0x6bj5Tj_-136">
          <mxGeometry width="60" height="30" as="geometry">
            <mxRectangle width="60" height="30" as="alternateBounds" />
          </mxGeometry>
        </mxCell>
        <mxCell id="I-8Jb-c6i_d0x6bj5Tj_-138" value="fk_stadium_id INT" style="shape=partialRectangle;connectable=0;fillColor=none;top=0;left=0;bottom=0;right=0;align=left;spacingLeft=6;fontStyle=0;overflow=hidden;" vertex="1" parent="I-8Jb-c6i_d0x6bj5Tj_-136">
          <mxGeometry x="60" width="190" height="30" as="geometry">
            <mxRectangle width="190" height="30" as="alternateBounds" />
          </mxGeometry>
        </mxCell>
        <mxCell id="I-8Jb-c6i_d0x6bj5Tj_-139" value="" style="shape=tableRow;horizontal=0;startSize=0;swimlaneHead=0;swimlaneBody=0;fillColor=none;collapsible=0;dropTarget=0;points=[[0,0.5],[1,0.5]];portConstraint=eastwest;top=0;left=0;right=0;bottom=0;" vertex="1" parent="I-8Jb-c6i_d0x6bj5Tj_-132">
          <mxGeometry y="90" width="250" height="30" as="geometry" />
        </mxCell>
        <mxCell id="I-8Jb-c6i_d0x6bj5Tj_-140" value="" style="shape=partialRectangle;connectable=0;fillColor=none;top=0;left=0;bottom=0;right=0;editable=1;overflow=hidden;" vertex="1" parent="I-8Jb-c6i_d0x6bj5Tj_-139">
          <mxGeometry width="60" height="30" as="geometry">
            <mxRectangle width="60" height="30" as="alternateBounds" />
          </mxGeometry>
        </mxCell>
        <mxCell id="I-8Jb-c6i_d0x6bj5Tj_-141" value="date_time TIMESTAMP" style="shape=partialRectangle;connectable=0;fillColor=none;top=0;left=0;bottom=0;right=0;align=left;spacingLeft=6;overflow=hidden;" vertex="1" parent="I-8Jb-c6i_d0x6bj5Tj_-139">
          <mxGeometry x="60" width="190" height="30" as="geometry">
            <mxRectangle width="190" height="30" as="alternateBounds" />
          </mxGeometry>
        </mxCell>
        <mxCell id="I-8Jb-c6i_d0x6bj5Tj_-142" value="" style="shape=tableRow;horizontal=0;startSize=0;swimlaneHead=0;swimlaneBody=0;fillColor=none;collapsible=0;dropTarget=0;points=[[0,0.5],[1,0.5]];portConstraint=eastwest;top=0;left=0;right=0;bottom=0;rounded=0;shadow=0;glass=0;sketch=0;strokeWidth=2;" vertex="1" parent="I-8Jb-c6i_d0x6bj5Tj_-132">
          <mxGeometry y="120" width="250" height="30" as="geometry" />
        </mxCell>
        <mxCell id="I-8Jb-c6i_d0x6bj5Tj_-143" value="" style="shape=partialRectangle;connectable=0;fillColor=none;top=0;left=0;bottom=0;right=0;editable=1;overflow=hidden;rounded=0;shadow=0;glass=0;sketch=0;strokeWidth=2;" vertex="1" parent="I-8Jb-c6i_d0x6bj5Tj_-142">
          <mxGeometry width="60" height="30" as="geometry">
            <mxRectangle width="60" height="30" as="alternateBounds" />
          </mxGeometry>
        </mxCell>
        <mxCell id="I-8Jb-c6i_d0x6bj5Tj_-144" value="attendance INT" style="shape=partialRectangle;connectable=0;fillColor=none;top=0;left=0;bottom=0;right=0;align=left;spacingLeft=6;overflow=hidden;rounded=0;shadow=0;glass=0;sketch=0;strokeWidth=2;" vertex="1" parent="I-8Jb-c6i_d0x6bj5Tj_-142">
          <mxGeometry x="60" width="190" height="30" as="geometry">
            <mxRectangle width="190" height="30" as="alternateBounds" />
          </mxGeometry>
        </mxCell>
        <mxCell id="I-8Jb-c6i_d0x6bj5Tj_-179" value="team" style="shape=table;startSize=30;container=1;collapsible=1;childLayout=tableLayout;fixedRows=1;rowLines=0;fontStyle=0;align=center;resizeLast=1;rounded=0;shadow=0;glass=0;sketch=0;strokeWidth=1;swimlaneLine=1;strokeColor=default;" vertex="1" parent="1">
          <mxGeometry x="360" y="-150" width="180" height="180" as="geometry" />
        </mxCell>
        <mxCell id="I-8Jb-c6i_d0x6bj5Tj_-180" value="" style="shape=tableRow;horizontal=0;startSize=0;swimlaneHead=0;swimlaneBody=0;fillColor=none;collapsible=0;dropTarget=0;points=[[0,0.5],[1,0.5]];portConstraint=eastwest;top=0;left=0;right=0;bottom=1;rounded=0;shadow=0;glass=0;sketch=0;strokeWidth=2;" vertex="1" parent="I-8Jb-c6i_d0x6bj5Tj_-179">
          <mxGeometry y="30" width="180" height="30" as="geometry" />
        </mxCell>
        <mxCell id="I-8Jb-c6i_d0x6bj5Tj_-181" value="PK" style="shape=partialRectangle;connectable=0;fillColor=none;top=0;left=0;bottom=0;right=0;fontStyle=1;overflow=hidden;rounded=0;shadow=0;glass=0;sketch=0;strokeWidth=2;" vertex="1" parent="I-8Jb-c6i_d0x6bj5Tj_-180">
          <mxGeometry width="30" height="30" as="geometry">
            <mxRectangle width="30" height="30" as="alternateBounds" />
          </mxGeometry>
        </mxCell>
        <mxCell id="I-8Jb-c6i_d0x6bj5Tj_-182" value="id INT" style="shape=partialRectangle;connectable=0;fillColor=none;top=0;left=0;bottom=0;right=0;align=left;spacingLeft=6;fontStyle=0;overflow=hidden;rounded=0;shadow=0;glass=0;sketch=0;strokeWidth=2;" vertex="1" parent="I-8Jb-c6i_d0x6bj5Tj_-180">
          <mxGeometry x="30" width="150" height="30" as="geometry">
            <mxRectangle width="150" height="30" as="alternateBounds" />
          </mxGeometry>
        </mxCell>
        <mxCell id="I-8Jb-c6i_d0x6bj5Tj_-183" value="" style="shape=tableRow;horizontal=0;startSize=0;swimlaneHead=0;swimlaneBody=0;fillColor=none;collapsible=0;dropTarget=0;points=[[0,0.5],[1,0.5]];portConstraint=eastwest;top=0;left=0;right=0;bottom=0;rounded=0;shadow=0;glass=0;sketch=0;strokeWidth=2;" vertex="1" parent="I-8Jb-c6i_d0x6bj5Tj_-179">
          <mxGeometry y="60" width="180" height="30" as="geometry" />
        </mxCell>
        <mxCell id="I-8Jb-c6i_d0x6bj5Tj_-184" value="" style="shape=partialRectangle;connectable=0;fillColor=none;top=0;left=0;bottom=0;right=0;editable=1;overflow=hidden;rounded=0;shadow=0;glass=0;sketch=0;strokeWidth=2;" vertex="1" parent="I-8Jb-c6i_d0x6bj5Tj_-183">
          <mxGeometry width="30" height="30" as="geometry">
            <mxRectangle width="30" height="30" as="alternateBounds" />
          </mxGeometry>
        </mxCell>
        <mxCell id="I-8Jb-c6i_d0x6bj5Tj_-185" value="name VARCHAR(45)" style="shape=partialRectangle;connectable=0;fillColor=none;top=0;left=0;bottom=0;right=0;align=left;spacingLeft=6;overflow=hidden;rounded=0;shadow=0;glass=0;sketch=0;strokeWidth=2;" vertex="1" parent="I-8Jb-c6i_d0x6bj5Tj_-183">
          <mxGeometry x="30" width="150" height="30" as="geometry">
            <mxRectangle width="150" height="30" as="alternateBounds" />
          </mxGeometry>
        </mxCell>
        <mxCell id="I-8Jb-c6i_d0x6bj5Tj_-189" value="" style="shape=tableRow;horizontal=0;startSize=0;swimlaneHead=0;swimlaneBody=0;fillColor=none;collapsible=0;dropTarget=0;points=[[0,0.5],[1,0.5]];portConstraint=eastwest;top=0;left=0;right=0;bottom=0;rounded=0;shadow=0;glass=0;sketch=0;strokeColor=default;strokeWidth=1;" vertex="1" parent="I-8Jb-c6i_d0x6bj5Tj_-179">
          <mxGeometry y="90" width="180" height="30" as="geometry" />
        </mxCell>
        <mxCell id="I-8Jb-c6i_d0x6bj5Tj_-190" value="" style="shape=partialRectangle;connectable=0;fillColor=none;top=0;left=0;bottom=0;right=0;editable=1;overflow=hidden;rounded=0;shadow=0;glass=0;sketch=0;strokeColor=default;strokeWidth=1;" vertex="1" parent="I-8Jb-c6i_d0x6bj5Tj_-189">
          <mxGeometry width="30" height="30" as="geometry">
            <mxRectangle width="30" height="30" as="alternateBounds" />
          </mxGeometry>
        </mxCell>
        <mxCell id="I-8Jb-c6i_d0x6bj5Tj_-191" value="defeats INT" style="shape=partialRectangle;connectable=0;fillColor=none;top=0;left=0;bottom=0;right=0;align=left;spacingLeft=6;overflow=hidden;rounded=0;shadow=0;glass=0;sketch=0;strokeColor=default;strokeWidth=1;" vertex="1" parent="I-8Jb-c6i_d0x6bj5Tj_-189">
          <mxGeometry x="30" width="150" height="30" as="geometry">
            <mxRectangle width="150" height="30" as="alternateBounds" />
          </mxGeometry>
        </mxCell>
        <mxCell id="I-8Jb-c6i_d0x6bj5Tj_-192" value="" style="shape=tableRow;horizontal=0;startSize=0;swimlaneHead=0;swimlaneBody=0;fillColor=none;collapsible=0;dropTarget=0;points=[[0,0.5],[1,0.5]];portConstraint=eastwest;top=0;left=0;right=0;bottom=0;rounded=0;shadow=0;glass=0;sketch=0;strokeColor=default;strokeWidth=1;" vertex="1" parent="I-8Jb-c6i_d0x6bj5Tj_-179">
          <mxGeometry y="120" width="180" height="30" as="geometry" />
        </mxCell>
        <mxCell id="I-8Jb-c6i_d0x6bj5Tj_-193" value="" style="shape=partialRectangle;connectable=0;fillColor=none;top=0;left=0;bottom=0;right=0;editable=1;overflow=hidden;rounded=0;shadow=0;glass=0;sketch=0;strokeColor=default;strokeWidth=1;" vertex="1" parent="I-8Jb-c6i_d0x6bj5Tj_-192">
          <mxGeometry width="30" height="30" as="geometry">
            <mxRectangle width="30" height="30" as="alternateBounds" />
          </mxGeometry>
        </mxCell>
        <mxCell id="I-8Jb-c6i_d0x6bj5Tj_-194" value="draws INT" style="shape=partialRectangle;connectable=0;fillColor=none;top=0;left=0;bottom=0;right=0;align=left;spacingLeft=6;overflow=hidden;rounded=0;shadow=0;glass=0;sketch=0;strokeColor=default;strokeWidth=1;" vertex="1" parent="I-8Jb-c6i_d0x6bj5Tj_-192">
          <mxGeometry x="30" width="150" height="30" as="geometry">
            <mxRectangle width="150" height="30" as="alternateBounds" />
          </mxGeometry>
        </mxCell>
        <mxCell id="I-8Jb-c6i_d0x6bj5Tj_-186" value="" style="shape=tableRow;horizontal=0;startSize=0;swimlaneHead=0;swimlaneBody=0;fillColor=none;collapsible=0;dropTarget=0;points=[[0,0.5],[1,0.5]];portConstraint=eastwest;top=0;left=0;right=0;bottom=0;rounded=0;shadow=0;glass=0;sketch=0;strokeWidth=2;" vertex="1" parent="I-8Jb-c6i_d0x6bj5Tj_-179">
          <mxGeometry y="150" width="180" height="30" as="geometry" />
        </mxCell>
        <mxCell id="I-8Jb-c6i_d0x6bj5Tj_-187" value="" style="shape=partialRectangle;connectable=0;fillColor=none;top=0;left=0;bottom=0;right=0;editable=1;overflow=hidden;rounded=0;shadow=0;glass=0;sketch=0;strokeWidth=2;" vertex="1" parent="I-8Jb-c6i_d0x6bj5Tj_-186">
          <mxGeometry width="30" height="30" as="geometry">
            <mxRectangle width="30" height="30" as="alternateBounds" />
          </mxGeometry>
        </mxCell>
        <mxCell id="I-8Jb-c6i_d0x6bj5Tj_-188" value="wins INT" style="shape=partialRectangle;connectable=0;fillColor=none;top=0;left=0;bottom=0;right=0;align=left;spacingLeft=6;overflow=hidden;rounded=0;shadow=0;glass=0;sketch=0;strokeWidth=2;" vertex="1" parent="I-8Jb-c6i_d0x6bj5Tj_-186">
          <mxGeometry x="30" width="150" height="30" as="geometry">
            <mxRectangle width="150" height="30" as="alternateBounds" />
          </mxGeometry>
        </mxCell>
        <mxCell id="I-8Jb-c6i_d0x6bj5Tj_-195" value="score" style="shape=table;startSize=30;container=1;collapsible=1;childLayout=tableLayout;fixedRows=1;rowLines=0;fontStyle=1;align=center;resizeLast=1;" vertex="1" parent="1">
          <mxGeometry x="350" y="90" width="250" height="150" as="geometry" />
        </mxCell>
        <mxCell id="I-8Jb-c6i_d0x6bj5Tj_-196" value="" style="shape=tableRow;horizontal=0;startSize=0;swimlaneHead=0;swimlaneBody=0;fillColor=none;collapsible=0;dropTarget=0;points=[[0,0.5],[1,0.5]];portConstraint=eastwest;top=0;left=0;right=0;bottom=0;" vertex="1" parent="I-8Jb-c6i_d0x6bj5Tj_-195">
          <mxGeometry y="30" width="250" height="30" as="geometry" />
        </mxCell>
        <mxCell id="I-8Jb-c6i_d0x6bj5Tj_-197" value="PK" style="shape=partialRectangle;connectable=0;fillColor=none;top=0;left=0;bottom=0;right=0;fontStyle=1;overflow=hidden;" vertex="1" parent="I-8Jb-c6i_d0x6bj5Tj_-196">
          <mxGeometry width="60" height="30" as="geometry">
            <mxRectangle width="60" height="30" as="alternateBounds" />
          </mxGeometry>
        </mxCell>
        <mxCell id="I-8Jb-c6i_d0x6bj5Tj_-198" value="id INT" style="shape=partialRectangle;connectable=0;fillColor=none;top=0;left=0;bottom=0;right=0;align=left;spacingLeft=6;fontStyle=0;overflow=hidden;" vertex="1" parent="I-8Jb-c6i_d0x6bj5Tj_-196">
          <mxGeometry x="60" width="190" height="30" as="geometry">
            <mxRectangle width="190" height="30" as="alternateBounds" />
          </mxGeometry>
        </mxCell>
        <mxCell id="I-8Jb-c6i_d0x6bj5Tj_-208" value="" style="shape=tableRow;horizontal=0;startSize=0;swimlaneHead=0;swimlaneBody=0;fillColor=none;collapsible=0;dropTarget=0;points=[[0,0.5],[1,0.5]];portConstraint=eastwest;top=0;left=0;right=0;bottom=0;rounded=0;shadow=0;glass=0;sketch=0;strokeColor=default;strokeWidth=1;" vertex="1" parent="I-8Jb-c6i_d0x6bj5Tj_-195">
          <mxGeometry y="60" width="250" height="30" as="geometry" />
        </mxCell>
        <mxCell id="I-8Jb-c6i_d0x6bj5Tj_-209" value="FK" style="shape=partialRectangle;connectable=0;fillColor=none;top=0;left=0;bottom=0;right=0;editable=1;overflow=hidden;rounded=0;shadow=0;glass=0;sketch=0;strokeColor=default;strokeWidth=1;" vertex="1" parent="I-8Jb-c6i_d0x6bj5Tj_-208">
          <mxGeometry width="60" height="30" as="geometry">
            <mxRectangle width="60" height="30" as="alternateBounds" />
          </mxGeometry>
        </mxCell>
        <mxCell id="I-8Jb-c6i_d0x6bj5Tj_-210" value="fk_team_id INT" style="shape=partialRectangle;connectable=0;fillColor=none;top=0;left=0;bottom=0;right=0;align=left;spacingLeft=6;overflow=hidden;rounded=0;shadow=0;glass=0;sketch=0;strokeColor=default;strokeWidth=1;" vertex="1" parent="I-8Jb-c6i_d0x6bj5Tj_-208">
          <mxGeometry x="60" width="190" height="30" as="geometry">
            <mxRectangle width="190" height="30" as="alternateBounds" />
          </mxGeometry>
        </mxCell>
        <mxCell id="I-8Jb-c6i_d0x6bj5Tj_-199" value="" style="shape=tableRow;horizontal=0;startSize=0;swimlaneHead=0;swimlaneBody=0;fillColor=none;collapsible=0;dropTarget=0;points=[[0,0.5],[1,0.5]];portConstraint=eastwest;top=0;left=0;right=0;bottom=1;" vertex="1" parent="I-8Jb-c6i_d0x6bj5Tj_-195">
          <mxGeometry y="90" width="250" height="30" as="geometry" />
        </mxCell>
        <mxCell id="I-8Jb-c6i_d0x6bj5Tj_-200" value="FK" style="shape=partialRectangle;connectable=0;fillColor=none;top=0;left=0;bottom=0;right=0;fontStyle=1;overflow=hidden;" vertex="1" parent="I-8Jb-c6i_d0x6bj5Tj_-199">
          <mxGeometry width="60" height="30" as="geometry">
            <mxRectangle width="60" height="30" as="alternateBounds" />
          </mxGeometry>
        </mxCell>
        <mxCell id="I-8Jb-c6i_d0x6bj5Tj_-201" value="fk_match_id INT" style="shape=partialRectangle;connectable=0;fillColor=none;top=0;left=0;bottom=0;right=0;align=left;spacingLeft=6;fontStyle=0;overflow=hidden;" vertex="1" parent="I-8Jb-c6i_d0x6bj5Tj_-199">
          <mxGeometry x="60" width="190" height="30" as="geometry">
            <mxRectangle width="190" height="30" as="alternateBounds" />
          </mxGeometry>
        </mxCell>
        <mxCell id="I-8Jb-c6i_d0x6bj5Tj_-202" value="" style="shape=tableRow;horizontal=0;startSize=0;swimlaneHead=0;swimlaneBody=0;fillColor=none;collapsible=0;dropTarget=0;points=[[0,0.5],[1,0.5]];portConstraint=eastwest;top=0;left=0;right=0;bottom=0;" vertex="1" parent="I-8Jb-c6i_d0x6bj5Tj_-195">
          <mxGeometry y="120" width="250" height="30" as="geometry" />
        </mxCell>
        <mxCell id="I-8Jb-c6i_d0x6bj5Tj_-203" value="" style="shape=partialRectangle;connectable=0;fillColor=none;top=0;left=0;bottom=0;right=0;editable=1;overflow=hidden;" vertex="1" parent="I-8Jb-c6i_d0x6bj5Tj_-202">
          <mxGeometry width="60" height="30" as="geometry">
            <mxRectangle width="60" height="30" as="alternateBounds" />
          </mxGeometry>
        </mxCell>
        <mxCell id="I-8Jb-c6i_d0x6bj5Tj_-204" value="goals INT" style="shape=partialRectangle;connectable=0;fillColor=none;top=0;left=0;bottom=0;right=0;align=left;spacingLeft=6;overflow=hidden;" vertex="1" parent="I-8Jb-c6i_d0x6bj5Tj_-202">
          <mxGeometry x="60" width="190" height="30" as="geometry">
            <mxRectangle width="190" height="30" as="alternateBounds" />
          </mxGeometry>
        </mxCell>
        <mxCell id="I-8Jb-c6i_d0x6bj5Tj_-211" style="edgeStyle=orthogonalEdgeStyle;rounded=0;orthogonalLoop=1;jettySize=auto;html=1;exitX=1;exitY=0.5;exitDx=0;exitDy=0;entryX=0;entryY=0.5;entryDx=0;entryDy=0;" edge="1" parent="1" source="I-8Jb-c6i_d0x6bj5Tj_-18" target="I-8Jb-c6i_d0x6bj5Tj_-180">
          <mxGeometry relative="1" as="geometry" />
        </mxCell>
        <mxCell id="I-8Jb-c6i_d0x6bj5Tj_-212" style="edgeStyle=orthogonalEdgeStyle;rounded=0;orthogonalLoop=1;jettySize=auto;html=1;exitX=1;exitY=0.5;exitDx=0;exitDy=0;entryX=1;entryY=0.25;entryDx=0;entryDy=0;" edge="1" parent="1" source="I-8Jb-c6i_d0x6bj5Tj_-208" target="I-8Jb-c6i_d0x6bj5Tj_-179">
          <mxGeometry relative="1" as="geometry" />
        </mxCell>
        <mxCell id="I-8Jb-c6i_d0x6bj5Tj_-213" style="edgeStyle=orthogonalEdgeStyle;rounded=0;orthogonalLoop=1;jettySize=auto;html=1;exitX=1;exitY=0.5;exitDx=0;exitDy=0;entryX=0;entryY=0.5;entryDx=0;entryDy=0;" edge="1" parent="1" source="I-8Jb-c6i_d0x6bj5Tj_-199" target="I-8Jb-c6i_d0x6bj5Tj_-133">
          <mxGeometry relative="1" as="geometry" />
        </mxCell>
        <mxCell id="I-8Jb-c6i_d0x6bj5Tj_-214" style="edgeStyle=orthogonalEdgeStyle;rounded=0;orthogonalLoop=1;jettySize=auto;html=1;exitX=1;exitY=0.5;exitDx=0;exitDy=0;entryX=1;entryY=0.5;entryDx=0;entryDy=0;" edge="1" parent="1" source="I-8Jb-c6i_d0x6bj5Tj_-136" target="I-8Jb-c6i_d0x6bj5Tj_-104">
          <mxGeometry relative="1" as="geometry" />
        </mxCell>
      </root>
    </mxGraphModel>
  </diagram>
</mxfile>
